<svg width="15" height="17" viewBox="0 0 15 17" fill="none" xmlns="http://www.w3.org/2000/svg">
<path d="M11.0765 1.86083V0.604167C11.0765 0.273889 10.8027 0 10.4724 0C10.1421 0 9.86821 0.273889 9.86821 0.604167V1.8125H4.63213V0.604167C4.63213 0.273889 4.35824 0 4.02796 0C3.69768 0 3.42379 0.273889 3.42379 0.604167V1.86083C1.24879 2.06222 0.193515 3.35917 0.0324034 5.28444C0.0162923 5.51806 0.209626 5.71139 0.435181 5.71139H14.0652C14.2988 5.71139 14.4921 5.51 14.4679 5.28444C14.3068 3.35917 13.2515 2.06222 11.0765 1.86083Z" fill="#6560E1"/>
<path d="M13.6944 6.9196H0.805556C0.3625 6.9196 0 7.28207 0 7.72512V12.6873C0 15.104 1.20833 16.7151 4.02778 16.7151H10.4722C13.2917 16.7151 14.5 15.104 14.5 12.6873V7.72512C14.5 7.28207 14.1375 6.9196 13.6944 6.9196ZM5.0025 13.6621C4.96222 13.6943 4.92195 13.7346 4.88167 13.7587C4.83333 13.791 4.785 13.8151 4.73667 13.8312C4.68833 13.8554 4.64 13.8715 4.59167 13.8796C4.53528 13.8876 4.48694 13.8957 4.43056 13.8957C4.32583 13.8957 4.22111 13.8715 4.12444 13.8312C4.01972 13.791 3.93917 13.7346 3.85861 13.6621C3.71361 13.509 3.625 13.2996 3.625 13.0901C3.625 12.8807 3.71361 12.6712 3.85861 12.5182C3.93917 12.4457 4.01972 12.3893 4.12444 12.349C4.26944 12.2846 4.43056 12.2685 4.59167 12.3007C4.64 12.3087 4.68833 12.3248 4.73667 12.349C4.785 12.3651 4.83333 12.3893 4.88167 12.4215C4.92195 12.4537 4.96222 12.486 5.0025 12.5182C5.1475 12.6712 5.23611 12.8807 5.23611 13.0901C5.23611 13.2996 5.1475 13.509 5.0025 13.6621ZM5.0025 10.8426C4.84944 10.9876 4.64 11.0762 4.43056 11.0762C4.22111 11.0762 4.01167 10.9876 3.85861 10.8426C3.71361 10.6896 3.625 10.4801 3.625 10.2707C3.625 10.0612 3.71361 9.85179 3.85861 9.69874C4.08417 9.47318 4.43861 9.40068 4.73667 9.52957C4.84139 9.56985 4.93 9.62624 5.0025 9.69874C5.1475 9.85179 5.23611 10.0612 5.23611 10.2707C5.23611 10.4801 5.1475 10.6896 5.0025 10.8426ZM7.82194 13.6621C7.66889 13.8071 7.45944 13.8957 7.25 13.8957C7.04056 13.8957 6.83111 13.8071 6.67806 13.6621C6.53306 13.509 6.44444 13.2996 6.44444 13.0901C6.44444 12.8807 6.53306 12.6712 6.67806 12.5182C6.97611 12.2201 7.52389 12.2201 7.82194 12.5182C7.96694 12.6712 8.05556 12.8807 8.05556 13.0901C8.05556 13.2996 7.96694 13.509 7.82194 13.6621ZM7.82194 10.8426C7.78167 10.8748 7.74139 10.9071 7.70111 10.9393C7.65278 10.9715 7.60444 10.9957 7.55611 11.0118C7.50778 11.036 7.45944 11.0521 7.41111 11.0601C7.35472 11.0682 7.30639 11.0762 7.25 11.0762C7.04056 11.0762 6.83111 10.9876 6.67806 10.8426C6.53306 10.6896 6.44444 10.4801 6.44444 10.2707C6.44444 10.0612 6.53306 9.85179 6.67806 9.69874C6.75056 9.62624 6.83917 9.56985 6.94389 9.52957C7.24194 9.40068 7.59639 9.47318 7.82194 9.69874C7.96694 9.85179 8.05556 10.0612 8.05556 10.2707C8.05556 10.4801 7.96694 10.6896 7.82194 10.8426ZM10.6414 13.6621C10.4883 13.8071 10.2789 13.8957 10.0694 13.8957C9.86 13.8957 9.65056 13.8071 9.4975 13.6621C9.3525 13.509 9.26389 13.2996 9.26389 13.0901C9.26389 12.8807 9.3525 12.6712 9.4975 12.5182C9.79556 12.2201 10.3433 12.2201 10.6414 12.5182C10.7864 12.6712 10.875 12.8807 10.875 13.0901C10.875 13.2996 10.7864 13.509 10.6414 13.6621ZM10.6414 10.8426C10.6011 10.8748 10.5608 10.9071 10.5206 10.9393C10.4722 10.9715 10.4239 10.9957 10.3756 11.0118C10.3272 11.036 10.2789 11.0521 10.2306 11.0601C10.1742 11.0682 10.1178 11.0762 10.0694 11.0762C9.86 11.0762 9.65056 10.9876 9.4975 10.8426C9.3525 10.6896 9.26389 10.4801 9.26389 10.2707C9.26389 10.0612 9.3525 9.85179 9.4975 9.69874C9.57806 9.62624 9.65861 9.56985 9.76333 9.52957C9.90833 9.46512 10.0694 9.44901 10.2306 9.48124C10.2789 9.48929 10.3272 9.5054 10.3756 9.52957C10.4239 9.54568 10.4722 9.56985 10.5206 9.60207L10.6414 9.69874C10.7864 9.85179 10.875 10.0612 10.875 10.2707C10.875 10.4801 10.7864 10.6896 10.6414 10.8426Z" fill="#6560E1"/>
</svg>
