<svg width="14" height="10" viewBox="0 0 14 10" fill="none" xmlns="http://www.w3.org/2000/svg">
<path id="Vector" d="M4.63562 8.48623C6.4061 6.70879 8.03827 5.0727 9.6675 3.4346C10.669 2.42708 11.6665 1.41555 12.666 0.407031C12.7474 0.324826 12.8289 0.241618 12.9191 0.171442C13.2222 -0.0611391 13.5351 -0.0671541 13.8009 0.215553C14.0667 0.497257 14.0667 0.828084 13.8019 1.10979C13.3036 1.63911 12.7877 2.14939 12.2756 2.66468C9.98334 4.97345 7.69006 7.28122 5.39678 9.58899C4.85043 10.1394 4.59933 10.1384 4.04808 9.58397C2.83768 8.36693 1.6263 7.14889 0.415905 5.93084C0.346263 5.86067 0.277601 5.78849 0.212864 5.7133C-0.0529527 5.40352 -0.0882642 5.07971 0.209921 4.78097C0.504183 4.48723 0.827871 4.5133 1.129 4.78197C1.32517 4.95741 1.51252 5.14588 1.693 5.33836C2.66407 6.37295 3.63121 7.41054 4.63562 8.48623Z" fill="white"/>
</svg>
