<svg width="15" height="12" viewBox="0 0 15 12" fill="none" xmlns="http://www.w3.org/2000/svg">
<path d="M14.7158 4.21484C14.8301 4.12402 15 4.20898 15 4.35254V10.3437C15 11.1201 14.3701 11.75 13.5938 11.75H1.40625C0.629883 11.75 0 11.1201 0 10.3437V4.35547C0 4.20898 0.166992 4.12695 0.28418 4.21777C0.94043 4.72754 1.81055 5.375 4.79883 7.5459C5.41699 7.99707 6.45996 8.94629 7.5 8.94043C8.5459 8.94922 9.60938 7.97949 10.2041 7.5459C13.1924 5.375 14.0596 4.72461 14.7158 4.21484ZM7.5 8C8.17969 8.01172 9.1582 7.14453 9.65039 6.78711C13.5381 3.96582 13.834 3.71973 14.7305 3.0166C14.9004 2.88477 15 2.67969 15 2.46289V1.90625C15 1.12988 14.3701 0.5 13.5938 0.5H1.40625C0.629883 0.5 0 1.12988 0 1.90625V2.46289C0 2.67969 0.0996094 2.88184 0.269531 3.0166C1.16602 3.7168 1.46191 3.96582 5.34961 6.78711C5.8418 7.14453 6.82031 8.01172 7.5 8Z" fill="#6560E1"/>
</svg>
