<svg width="56" height="56" viewBox="0 0 56 56" fill="none" xmlns="http://www.w3.org/2000/svg">
<path d="M1.83221e-05 28.0064C-0.0169391 43.3959 12.5829 55.9873 28.0064 56C43.3111 56.0127 55.983 43.434 56 28.2056C56.0212 12.7059 43.5103 0.0127264 28.2056 8.46568e-06C12.6041 -0.0127094 0.0169758 12.4854 1.83221e-05 28.0064ZM32.1611 27.9979C29.3461 25.2252 26.7896 22.6985 24.2205 20.1844C23.008 18.9931 22.5967 17.6916 23.788 16.2841C24.8479 15.0292 26.3487 15.1606 27.8241 16.619C30.885 19.646 33.9332 22.6857 36.956 25.7509C38.6349 27.4552 38.6306 28.5745 36.9518 30.2745C33.9799 33.2888 30.9613 36.265 27.9852 39.2708C26.7557 40.513 25.4287 41.1065 23.9195 39.8389C22.6137 38.7451 22.8045 37.2358 24.3985 35.6502C26.8871 33.1701 29.4097 30.7112 32.1611 27.9979Z" fill="#6560E1"/>
</svg>
