<svg width="37" height="27" viewBox="0 0 37 27" fill="none" xmlns="http://www.w3.org/2000/svg">
<path fill-rule="evenodd" clip-rule="evenodd" d="M9.02082 20.849C-1.91296 18.7666 0.812856 10.1544 11.3093 4.18494C12.0645 3.7508 15.7591 1.81735 12.2247 3.32928C-3.14619 9.88181 -4.60572 22.265 11.1821 22.6663C20.8064 22.9086 32.8336 17.3733 32.2182 11.9945C32.1292 11.2221 31.5724 10.5936 31.5673 10.5886C30.9367 9.8389 29.8026 9.50825 29.5814 9.44767C28.577 9.1675 27.5625 9.13468 27.5447 9.13216C27.6057 9.16497 30.001 9.87172 30.5782 11.3332C30.8477 12.0172 30.6494 12.6836 30.5502 13.0142C29.7899 15.5661 25.1876 18.6253 19.3215 20.0918C17.0838 20.6496 13.5342 21.2604 9.02082 20.849Z" fill="white"/>
<path fill-rule="evenodd" clip-rule="evenodd" d="M25.8182 3.70782C15.1844 3.43774 4.25573 9.97261 4.79479 14.3797C4.95244 15.677 5.96191 16.4116 5.96191 16.4116C6.3001 16.7044 6.61285 16.8507 6.89001 16.982C8.04442 17.5272 9.10474 17.5222 9.73025 17.5121C10.1218 17.5045 10.6685 17.4666 11.3144 17.3228C10.9813 17.3152 7.85371 17.2041 6.79339 15.099C6.74762 15.0107 6.47809 14.4503 6.46537 13.7966C6.40943 11.1514 11.1211 8.84181 12.5095 8.14264C15.7565 6.50451 21.2209 4.24545 27.9871 5.53526C38.9082 7.61763 36.1849 16.2298 25.6987 22.1993C24.9333 22.6334 21.2387 24.5568 24.7833 23.0449C40.1465 16.4949 41.6035 4.11167 25.8182 3.70782Z" fill="white"/>
<path d="M17.1322 3.38228C17.9818 3.38228 18.6705 2.62513 18.6705 1.69114C18.6705 0.757149 17.9818 0 17.1322 0C16.2826 0 15.5938 0.757149 15.5938 1.69114C15.5938 2.62513 16.2826 3.38228 17.1322 3.38228Z" fill="white"/>
<path d="M20.4962 26.6291C21.3458 26.6291 22.0346 25.872 22.0346 24.938C22.0346 24.004 21.3458 23.2468 20.4962 23.2468C19.6466 23.2468 18.9579 24.004 18.9579 24.938C18.9579 25.872 19.6466 26.6291 20.4962 26.6291Z" fill="white"/>
<path d="M18.6705 14.3319C19.4654 14.3319 20.1097 13.6923 20.1097 12.9032C20.1097 12.1142 19.4654 11.4746 18.6705 11.4746C17.8757 11.4746 17.2313 12.1142 17.2313 12.9032C17.2313 13.6923 17.8757 14.3319 18.6705 14.3319Z" fill="white"/>
<path d="M12.58 17.3846C13.7498 16.7042 14.8546 15.9909 15.8519 15.1561C16.3518 14.7413 16.8267 14.3011 17.2716 13.8357C17.719 13.3703 18.1314 12.877 18.5589 12.361C18.7738 12.1055 18.9988 11.8425 19.2362 11.587C19.4787 11.334 19.7361 11.0861 20.0111 10.8585C20.571 10.4082 21.1909 10.0414 21.8432 9.7809C23.153 9.25476 24.5702 9.13082 25.9 9.3433C24.5752 9.58866 23.3105 9.94026 22.2032 10.5625C21.6508 10.8711 21.1359 11.2328 20.6785 11.6502C20.2211 12.0701 19.8111 12.5558 19.3837 13.0718C18.9538 13.5828 18.4939 14.1089 17.984 14.5819C17.4741 15.0549 16.9267 15.4824 16.3468 15.8543C15.1845 16.5929 13.9072 17.1342 12.58 17.3846Z" fill="white"/>
</svg>
