<svg width="38" height="38" viewBox="0 0 38 38" fill="none" xmlns="http://www.w3.org/2000/svg">
<path d="M35.9874 31.1825C36.9083 31.5402 37.9991 31.0037 37.9991 30.1767V1.11855C37.9991 0.291506 36.9083 -0.244951 35.9874 0.112687C34.4607 1.02914 33.057 1.96794 31.6979 2.87768C26.9145 6.07407 22.7145 8.88377 15.8635 8.94188H6.70572C2.99522 8.94188 0 11.9371 0 15.6476C0 19.3581 2.99522 22.3533 6.70572 22.3533H15.6467C22.6273 22.3533 26.8676 25.1876 31.7002 28.4198C33.057 29.3273 34.4629 30.2661 35.9874 31.1825ZM17.8819 38H16.1161C15.1549 38 14.3055 37.3965 14.015 36.5024L9.09743 26.8238H17.8819C18.4747 26.8238 19.0433 27.0593 19.4625 27.4785C19.8817 27.8977 20.1172 28.4662 20.1172 29.059V35.7648C20.1172 36.9941 19.1113 38 17.8819 38Z" fill="white"/>
</svg>
