<svg width="20" height="20" viewBox="0 0 20 20" fill="none" xmlns="http://www.w3.org/2000/svg">
<g id="Group">
<g id="Group_2">
<path id="Vector" d="M5.27165 7.96125C6.81564 10.9181 9.03438 13.1262 11.9892 14.6988C12.4493 14.1167 12.8939 13.5425 13.351 12.9785C13.9317 12.2619 14.5356 12.1107 15.3419 12.5127C16.6057 13.1431 17.8642 13.785 19.1129 14.4452C20.0644 14.9482 20.251 15.7122 19.6701 16.6394C19.1917 17.4028 18.6853 18.1487 18.2099 18.9139C17.709 19.7202 17.0077 20.0438 16.0558 19.9953C13.4364 19.8614 11.1251 18.8734 8.99409 17.4458C4.92687 14.721 1.86945 11.1791 0.424325 6.42423C0.159197 5.55158 0.0945936 4.61004 0.00891906 3.6937C-0.0623992 2.93086 0.298128 2.33214 0.941845 1.90818C1.75575 1.37187 2.55924 0.819157 3.38149 0.295567C4.21901 -0.237732 5.00374 -0.0437845 5.47171 0.832334C6.15966 2.12039 6.82468 3.42139 7.47812 4.72748C7.83818 5.44686 7.70481 6.02709 7.0766 6.54629C6.49726 7.02503 5.8943 7.47534 5.27165 7.96125Z" fill="#6560E1"/>
</g>
</g>
</svg>
