<svg width="56" height="34" viewBox="0 0 56 34" fill="none" xmlns="http://www.w3.org/2000/svg">
<path d="M54.5467 11.324C50.0126 11.6304 43.5441 16.112 40.2704 17.5825C37.7233 18.7291 35.5263 19.7182 33.6094 19.7182C31.6312 19.7182 31.3336 18.3002 31.745 15.1754C31.8412 14.4751 32.7691 8.24296 28.0074 8.5143C25.8104 8.6456 22.3792 10.6851 13.171 19.5431L16.8035 10.4662C19.4644 3.82266 12.1469 -2.79465 5.45078 1.46809L0.645351 4.69797C-0.00237505 5.10936 -0.194942 5.97591 0.216451 6.63239L1.72198 8.99572C2.13337 9.6522 2.99992 9.84476 3.6564 9.42462L8.73317 6.01968C10.3437 4.99557 12.2957 6.6499 11.5954 8.39176L2.99992 29.8893C2.40471 31.3685 3.23626 33.7318 5.59958 33.7318C6.32608 33.7318 7.04383 33.4518 7.57777 32.9091C11.2716 29.2153 21.1187 19.7182 26.0642 15.7706C25.8717 18.2652 25.8804 20.9261 27.8673 23.1056C29.2066 24.5762 31.1322 25.3202 33.6006 25.3202C36.7167 25.3202 39.5527 24.0422 42.555 22.6942C45.4435 21.3988 51.2205 17.2148 54.6692 16.9347C55.4132 16.8735 55.9997 16.2958 55.9997 15.5518V12.742C56.0172 11.9455 55.3432 11.2715 54.5467 11.324Z" fill="white"/>
</svg>
