<svg width="70" height="13" viewBox="0 0 70 13" fill="none" xmlns="http://www.w3.org/2000/svg">
<g id="Group 60">
<path id="Vector" d="M4.07626 4.34029C4.07626 4.34029 1.82176 4.59 0.317808 4.75694C0.182253 4.77335 0.0623931 4.86396 0.0174457 5.00166C-0.0275016 5.13935 0.0174456 5.28276 0.117329 5.37337C1.23459 6.39289 2.91334 7.91967 2.91334 7.91967C2.91191 7.91967 2.45245 10.1406 2.14709 11.6225C2.12141 11.7566 2.16993 11.8986 2.28693 11.9835C2.40322 12.0684 2.55305 12.0698 2.67077 12.0035C3.98637 11.2558 5.95692 10.1314 5.95692 10.1314C5.95692 10.1314 7.92818 11.2558 9.24164 12.0042C9.3615 12.0698 9.51133 12.0684 9.62762 11.9835C9.74463 11.8986 9.79314 11.7566 9.76674 11.6232C9.46139 10.1406 9.00264 7.91967 9.00264 7.91967C9.00264 7.91967 10.6814 6.39289 11.7986 5.37551C11.8985 5.28204 11.9428 5.13864 11.8985 5.00166C11.8543 4.86468 11.7344 4.77407 11.5989 4.75837C10.0949 4.59 7.83971 4.34029 7.83971 4.34029C7.83971 4.34029 6.9051 2.27271 6.28225 0.894325C6.22375 0.770898 6.10104 0.68457 5.95692 0.68457C5.8128 0.68457 5.68937 0.771611 5.63373 0.894325C5.01017 2.27271 4.07626 4.34029 4.07626 4.34029Z" fill="#FF3D2E"/>
<path id="Vector_2" d="M32.865 4.34029C32.865 4.34029 30.6105 4.59 29.1066 4.75694C28.971 4.77335 28.8512 4.86396 28.8062 5.00166C28.7613 5.13935 28.8062 5.28276 28.9061 5.37337C30.0233 6.39289 31.7021 7.91967 31.7021 7.91967C31.7007 7.91967 31.2412 10.1406 30.9359 11.6225C30.9102 11.7566 30.9587 11.8986 31.0757 11.9835C31.192 12.0684 31.3418 12.0698 31.4595 12.0035C32.7751 11.2558 34.7457 10.1314 34.7457 10.1314C34.7457 10.1314 36.7169 11.2558 38.0304 12.0042C38.1503 12.0698 38.3001 12.0684 38.4164 11.9835C38.5334 11.8986 38.5819 11.7566 38.5555 11.6232C38.2501 10.1406 37.7914 7.91967 37.7914 7.91967C37.7914 7.91967 39.4701 6.39289 40.5874 5.37551C40.6873 5.28204 40.7315 5.13864 40.6873 5.00166C40.6431 4.86468 40.5232 4.77407 40.3876 4.75837C38.8837 4.59 36.6285 4.34029 36.6285 4.34029C36.6285 4.34029 35.6939 2.27271 35.071 0.894325C35.0125 0.770898 34.8898 0.68457 34.7457 0.68457C34.6016 0.68457 34.4781 0.771611 34.4225 0.894325C33.7989 2.27271 32.865 4.34029 32.865 4.34029Z" fill="#FF3D2E"/>
<path id="Vector_3" d="M18.596 4.34029C18.596 4.34029 16.3415 4.59 14.8376 4.75694C14.702 4.77335 14.5821 4.86396 14.5372 5.00166C14.4922 5.13935 14.5372 5.28276 14.6371 5.37337C15.7543 6.39289 17.4331 7.91967 17.4331 7.91967C17.4317 7.91967 16.9722 10.1406 16.6668 11.6225C16.6412 11.7566 16.6897 11.8986 16.8067 11.9835C16.923 12.0684 17.0728 12.0698 17.1905 12.0035C18.5061 11.2558 20.4767 10.1314 20.4767 10.1314C20.4767 10.1314 22.4479 11.2558 23.7614 12.0042C23.8812 12.0698 24.0311 12.0684 24.1474 11.9835C24.2644 11.8986 24.3129 11.7566 24.2865 11.6232C23.9811 10.1406 23.5224 7.91967 23.5224 7.91967C23.5224 7.91967 25.2011 6.39289 26.3184 5.37551C26.4183 5.28204 26.4625 5.13864 26.4183 5.00166C26.374 4.86468 26.2542 4.77407 26.1186 4.75837C24.6147 4.59 22.3595 4.34029 22.3595 4.34029C22.3595 4.34029 21.4248 2.27271 20.802 0.894325C20.7435 0.770898 20.6208 0.68457 20.4767 0.68457C20.3325 0.68457 20.2091 0.771611 20.1535 0.894325C19.5299 2.27271 18.596 4.34029 18.596 4.34029Z" fill="#FF3D2E"/>
<path id="Vector_4" d="M47.134 4.34029C47.134 4.34029 44.8795 4.59 43.3755 4.75694C43.24 4.77335 43.1201 4.86396 43.0752 5.00166C43.0302 5.13935 43.0752 5.28276 43.1751 5.37337C44.2923 6.39289 45.9711 7.91967 45.9711 7.91967C45.9697 7.91967 45.5102 10.1406 45.2048 11.6225C45.1791 11.7566 45.2277 11.8986 45.3447 11.9835C45.461 12.0684 45.6108 12.0698 45.7285 12.0035C47.0441 11.2558 49.0147 10.1314 49.0147 10.1314C49.0147 10.1314 50.9859 11.2558 52.2994 12.0042C52.4192 12.0698 52.5691 12.0684 52.6854 11.9835C52.8024 11.8986 52.8509 11.7566 52.8245 11.6232C52.5191 10.1406 52.0604 7.91967 52.0604 7.91967C52.0604 7.91967 53.7391 6.39289 54.8564 5.37551C54.9563 5.28204 55.0005 5.13864 54.9563 5.00166C54.912 4.86468 54.7922 4.77407 54.6566 4.75837C53.1527 4.59 50.8975 4.34029 50.8975 4.34029C50.8975 4.34029 49.9628 2.27271 49.34 0.894325C49.2815 0.770898 49.1588 0.68457 49.0147 0.68457C48.8705 0.68457 48.7471 0.771611 48.6915 0.894325C48.0679 2.27271 47.134 4.34029 47.134 4.34029Z" fill="#FF3D2E"/>
<path id="Vector_5" d="M61.403 4.34029C61.403 4.34029 59.1485 4.59 57.6446 4.75694C57.509 4.77335 57.3891 4.86396 57.3442 5.00166C57.2993 5.13935 57.3442 5.28276 57.4441 5.37337C58.5613 6.39289 60.2401 7.91967 60.2401 7.91967C60.2387 7.91967 59.7792 10.1406 59.4738 11.6225C59.4482 11.7566 59.4967 11.8986 59.6137 11.9835C59.73 12.0684 59.8798 12.0698 59.9975 12.0035C61.3131 11.2558 63.2837 10.1314 63.2837 10.1314C63.2837 10.1314 65.2549 11.2558 66.5684 12.0042C66.6883 12.0698 66.8381 12.0684 66.9544 11.9835C67.0714 11.8986 67.1199 11.7566 67.0935 11.6232C66.7881 10.1406 66.3294 7.91967 66.3294 7.91967C66.3294 7.91967 68.0081 6.39289 69.1254 5.37551C69.2253 5.28204 69.2695 5.13864 69.2253 5.00166C69.1811 4.86468 69.0612 4.77407 68.9256 4.75837C67.4217 4.59 65.1665 4.34029 65.1665 4.34029C65.1665 4.34029 64.2318 2.27271 63.609 0.894325C63.5505 0.770898 63.4278 0.68457 63.2837 0.68457C63.1396 0.68457 63.0161 0.771611 62.9605 0.894325C62.3369 2.27271 61.403 4.34029 61.403 4.34029Z" fill="#FF3D2E"/>
</g>
</svg>
