<svg width="70" height="13" viewBox="0 0 70 13" fill="none" xmlns="http://www.w3.org/2000/svg">
<g id="Group 61">
<path id="Vector" d="M4.46808 4.34029C4.46808 4.34029 2.21358 4.59 0.709623 4.75694C0.574068 4.77335 0.454208 4.86396 0.409261 5.00166C0.364314 5.13935 0.409261 5.28276 0.509144 5.37337C1.62641 6.39289 3.30516 7.91967 3.30516 7.91967C3.30373 7.91967 2.84427 10.1406 2.53891 11.6225C2.51323 11.7566 2.56174 11.8986 2.67875 11.9835C2.79504 12.0684 2.94486 12.0698 3.06258 12.0035C4.37818 11.2558 6.34873 10.1314 6.34873 10.1314C6.34873 10.1314 8.32 11.2558 9.63346 12.0042C9.75332 12.0698 9.90314 12.0684 10.0194 11.9835C10.1364 11.8986 10.185 11.7566 10.1586 11.6232C9.8532 10.1406 9.39445 7.91967 9.39445 7.91967C9.39445 7.91967 11.0732 6.39289 12.1905 5.37551C12.2903 5.28204 12.3346 5.13864 12.2903 5.00166C12.2461 4.86468 12.1263 4.77407 11.9907 4.75837C10.4867 4.59 8.23153 4.34029 8.23153 4.34029C8.23153 4.34029 7.29691 2.27271 6.67407 0.894325C6.61557 0.770898 6.49285 0.68457 6.34873 0.68457C6.20462 0.68457 6.08119 0.771611 6.02554 0.894325C5.40199 2.27271 4.46808 4.34029 4.46808 4.34029Z" fill="#FFB800"/>
<path id="Vector_2" d="M33.2568 4.34029C33.2568 4.34029 31.0023 4.59 29.4984 4.75694C29.3628 4.77335 29.243 4.86396 29.198 5.00166C29.1531 5.13935 29.198 5.28276 29.2979 5.37337C30.4152 6.39289 32.0939 7.91967 32.0939 7.91967C32.0925 7.91967 31.633 10.1406 31.3277 11.6225C31.302 11.7566 31.3505 11.8986 31.4675 11.9835C31.5838 12.0684 31.7336 12.0698 31.8513 12.0035C33.1669 11.2558 35.1375 10.1314 35.1375 10.1314C35.1375 10.1314 37.1088 11.2558 38.4222 12.0042C38.5421 12.0698 38.6919 12.0684 38.8082 11.9835C38.9252 11.8986 38.9737 11.7566 38.9473 11.6232C38.642 10.1406 38.1832 7.91967 38.1832 7.91967C38.1832 7.91967 39.862 6.39289 40.9792 5.37551C41.0791 5.28204 41.1233 5.13864 41.0791 5.00166C41.0349 4.86468 40.915 4.77407 40.7795 4.75837C39.2755 4.59 37.0203 4.34029 37.0203 4.34029C37.0203 4.34029 36.0857 2.27271 35.4628 0.894325C35.4043 0.770898 35.2816 0.68457 35.1375 0.68457C34.9934 0.68457 34.8699 0.771611 34.8143 0.894325C34.1907 2.27271 33.2568 4.34029 33.2568 4.34029Z" fill="#FFB800"/>
<path id="Vector_3" d="M18.9878 4.34029C18.9878 4.34029 16.7333 4.59 15.2294 4.75694C15.0938 4.77335 14.974 4.86396 14.929 5.00166C14.8841 5.13935 14.929 5.28276 15.0289 5.37337C16.1462 6.39289 17.8249 7.91967 17.8249 7.91967C17.8235 7.91967 17.364 10.1406 17.0587 11.6225C17.033 11.7566 17.0815 11.8986 17.1985 11.9835C17.3148 12.0684 17.4646 12.0698 17.5823 12.0035C18.8979 11.2558 20.8685 10.1314 20.8685 10.1314C20.8685 10.1314 22.8397 11.2558 24.1532 12.0042C24.2731 12.0698 24.4229 12.0684 24.5392 11.9835C24.6562 11.8986 24.7047 11.7566 24.6783 11.6232C24.3729 10.1406 23.9142 7.91967 23.9142 7.91967C23.9142 7.91967 25.5929 6.39289 26.7102 5.37551C26.8101 5.28204 26.8543 5.13864 26.8101 5.00166C26.7659 4.86468 26.646 4.77407 26.5104 4.75837C25.0065 4.59 22.7513 4.34029 22.7513 4.34029C22.7513 4.34029 21.8167 2.27271 21.1938 0.894325C21.1353 0.770898 21.0126 0.68457 20.8685 0.68457C20.7244 0.68457 20.6009 0.771611 20.5453 0.894325C19.9217 2.27271 18.9878 4.34029 18.9878 4.34029Z" fill="#FFB800"/>
<path id="Vector_4" d="M47.5258 4.34029C47.5258 4.34029 45.2713 4.59 43.7674 4.75694C43.6318 4.77335 43.5119 4.86396 43.467 5.00166C43.4221 5.13935 43.467 5.28276 43.5669 5.37337C44.6841 6.39289 46.3629 7.91967 46.3629 7.91967C46.3615 7.91967 45.902 10.1406 45.5966 11.6225C45.571 11.7566 45.6195 11.8986 45.7365 11.9835C45.8528 12.0684 46.0026 12.0698 46.1203 12.0035C47.4359 11.2558 49.4065 10.1314 49.4065 10.1314C49.4065 10.1314 51.3777 11.2558 52.6912 12.0042C52.8111 12.0698 52.9609 12.0684 53.0772 11.9835C53.1942 11.8986 53.2427 11.7566 53.2163 11.6232C52.9109 10.1406 52.4522 7.91967 52.4522 7.91967C52.4522 7.91967 54.1309 6.39289 55.2482 5.37551C55.3481 5.28204 55.3923 5.13864 55.3481 5.00166C55.3039 4.86468 55.184 4.77407 55.0484 4.75837C53.5445 4.59 51.2893 4.34029 51.2893 4.34029C51.2893 4.34029 50.3546 2.27271 49.7318 0.894325C49.6733 0.770898 49.5506 0.68457 49.4065 0.68457C49.2624 0.68457 49.1389 0.771611 49.0833 0.894325C48.4597 2.27271 47.5258 4.34029 47.5258 4.34029Z" fill="#FFB800"/>
<path id="Vector_5" d="M61.7948 4.34029C61.7948 4.34029 59.5403 4.59 58.0364 4.75694C57.9008 4.77335 57.781 4.86396 57.736 5.00166C57.6911 5.13935 57.736 5.28276 57.8359 5.37337C58.9532 6.39289 60.6319 7.91967 60.6319 7.91967C60.6305 7.91967 60.171 10.1406 59.8657 11.6225C59.84 11.7566 59.8885 11.8986 60.0055 11.9835C60.1218 12.0684 60.2716 12.0698 60.3893 12.0035C61.7049 11.2558 63.6755 10.1314 63.6755 10.1314C63.6755 10.1314 65.6467 11.2558 66.9602 12.0042C67.0801 12.0698 67.2299 12.0684 67.3462 11.9835C67.4632 11.8986 67.5117 11.7566 67.4853 11.6232C67.18 10.1406 66.7212 7.91967 66.7212 7.91967C66.7212 7.91967 68.4 6.39289 69.5172 5.37551C69.6171 5.28204 69.6613 5.13864 69.6171 5.00166C69.5729 4.86468 69.453 4.77407 69.3175 4.75837C67.8135 4.59 65.5583 4.34029 65.5583 4.34029C65.5583 4.34029 64.6237 2.27271 64.0008 0.894325C63.9423 0.770898 63.8196 0.68457 63.6755 0.68457C63.5314 0.68457 63.4079 0.771611 63.3523 0.894325C62.7287 2.27271 61.7948 4.34029 61.7948 4.34029Z" fill="#FFB800"/>
</g>
</svg>
