<svg width="24" height="23" viewBox="0 0 24 23" fill="none" xmlns="http://www.w3.org/2000/svg">
<path d="M18.6682 22.9941C18.4759 22.9948 18.2862 22.9492 18.1151 22.861L11.982 19.6304L5.84885 22.861C5.6497 22.9663 5.42516 23.0134 5.20076 22.9967C4.97636 22.9801 4.7611 22.9004 4.57946 22.7668C4.39781 22.6332 4.25706 22.451 4.17321 22.2409C4.08936 22.0309 4.06577 21.8013 4.10513 21.5784L5.3077 14.7664L0.35311 9.92658C0.198529 9.77137 0.0888716 9.57675 0.0359058 9.36358C-0.01706 9.15042 -0.0113345 8.92677 0.0524679 8.71663C0.122169 8.50159 0.250382 8.31051 0.422559 8.16508C0.594736 8.01965 0.803981 7.92569 1.02655 7.89386L7.8812 6.8896L10.8996 0.682546C10.9981 0.477978 11.1519 0.305455 11.3433 0.18474C11.5347 0.0640249 11.7561 0 11.982 0C12.2079 0 12.4292 0.0640249 12.6206 0.18474C12.812 0.305455 12.9658 0.477978 13.0643 0.682546L16.1188 6.8775L22.9734 7.88176C23.196 7.91359 23.4053 8.00755 23.5774 8.15298C23.7496 8.29841 23.8778 8.48949 23.9475 8.70453C24.0113 8.91467 24.0171 9.13832 23.9641 9.35148C23.9111 9.56464 23.8015 9.75927 23.6469 9.91448L18.6923 14.7543L19.8949 21.5663C19.9378 21.7932 19.9153 22.0276 19.8301 22.242C19.7449 22.4564 19.6004 22.6418 19.4138 22.7763C19.1961 22.9298 18.9339 23.0064 18.6682 22.9941Z" fill="white"/>
</svg>
