<svg width="34" height="39" viewBox="0 0 34 39" fill="none" xmlns="http://www.w3.org/2000/svg">
<path d="M17 19.4286C22.3656 19.4286 26.7143 15.0799 26.7143 9.71429C26.7143 4.34866 22.3656 0 17 0C11.6344 0 7.28571 4.34866 7.28571 9.71429C7.28571 15.0799 11.6344 19.4286 17 19.4286ZM23.8 21.8571H22.5326C20.8478 22.6313 18.9732 23.0714 17 23.0714C15.0268 23.0714 13.1598 22.6313 11.4674 21.8571H10.2C4.56875 21.8571 0 26.4259 0 32.0571V35.2143C0 37.2254 1.6317 38.8571 3.64286 38.8571H30.3571C32.3683 38.8571 34 37.2254 34 35.2143V32.0571C34 26.4259 29.4313 21.8571 23.8 21.8571Z" fill="white"/>
</svg>
